<svg width="524" height="602" viewBox="0 0 524 602" fill="none" xmlns="http://www.w3.org/2000/svg">
<g filter="url(#filter0_d)">
<rect x="43" y="19.796" width="251" height="516" rx="36.45" transform="rotate(-2 43 19.796)" fill="#F2F2F2"/>
</g>
<path fill-rule="evenodd" clip-rule="evenodd" d="M78.6624 29.5573C65.25 30.0257 54.7569 41.2783 55.2253 54.6906L70.7457 499.138C71.2141 512.551 82.4666 523.044 95.879 522.576L275.444 516.305C288.856 515.837 299.349 504.584 298.881 491.172L283.36 46.7239C282.892 33.3116 271.639 22.8184 258.227 23.2868L230.234 24.2644L230.375 28.3129C230.64 35.9133 224.694 42.2897 217.094 42.5551L121.728 45.8853C114.128 46.1507 107.752 40.2046 107.486 32.6043L107.345 28.5557L78.6624 29.5573Z" fill="#5EC2A4"/>
<mask id="mask0" mask-type="alpha" maskUnits="userSpaceOnUse" x="61" y="8" width="338" height="515">
<rect x="61.9884" y="19.1329" width="319" height="504" transform="rotate(-2 61.9884 19.1329)" fill="white"/>
</mask>
<g mask="url(#mask0)">
<path fill-rule="evenodd" clip-rule="evenodd" d="M296.826 135.871C300.162 148.361 305.753 158.239 310.341 160.842C321.847 167.368 355.205 134.521 360.892 114.363C366.578 94.2056 335.51 53.0238 308.268 77.5359C298.814 86.0433 294.786 97.894 294.037 110.015L238.175 147.518L267.705 176.035L296.826 135.871Z" fill="#B28B67"/>
<path fill-rule="evenodd" clip-rule="evenodd" d="M376.432 105.305C370.094 111.868 359.764 112.254 352.945 106.337C348.131 103.897 342.554 100.133 336.925 95.3826C335.577 97.8057 333.742 100.265 331.352 102.739C329.242 104.924 326.763 107.008 324.046 108.932C324.214 106.464 323.538 104.095 321.982 102.592C317.63 98.389 311.147 99.039 307.48 102.836C302.827 107.654 302.246 113.83 306.043 118.036C295.603 121.519 285.433 121.915 280.374 117.029C270.763 107.748 276.321 88.3172 289.644 74.5209C290.112 74.0362 290.587 73.564 291.067 73.1044C285.661 72.1922 279.824 72.2034 273.945 72.2148C261.454 72.2389 248.772 72.2633 239.625 63.4304C221.325 45.7576 249.655 1.87573 275.224 26.5672C292.612 43.3592 298.721 54.151 302.477 65.0135C307.883 62.3243 313.423 61.0238 318.455 61.2384C319.815 61.135 321.492 61.3991 323.41 61.9945C324.615 62.3251 325.77 62.7622 326.863 63.308C332.884 65.9695 340.435 71.037 347.87 77.732C349.258 78.9822 350.59 80.2423 351.861 81.5022C358.418 74.754 369.211 74.5855 375.993 81.1353C382.789 87.6976 382.985 98.5188 376.432 105.305Z" fill="#181746"/>
<path fill-rule="evenodd" clip-rule="evenodd" d="M35.8032 412.476C35.8032 412.476 92.4102 442.117 136.079 451.399C179.748 460.681 222.717 442.698 222.717 442.698C222.717 442.698 167.493 412.886 129.38 404.784C91.2666 396.683 35.8032 412.476 35.8032 412.476Z" fill="#1F28CF"/>
<path fill-rule="evenodd" clip-rule="evenodd" d="M167.374 474.971C167.111 474.307 166.918 473.604 166.805 472.863C164.459 457.529 111.099 286.135 108.491 256.318L205.213 276.877C207.196 299.547 208.09 439.355 206.547 466.883C210.617 511.687 208.453 653.531 209.866 663.69C211.353 674.377 188.923 680.413 186.124 667.069C181.671 645.835 172.645 587.783 170.514 553.055C168.516 520.498 167.447 491.363 167.374 474.971Z" fill="#997659"/>
<path fill-rule="evenodd" clip-rule="evenodd" d="M84.2678 476.848C42.8798 478.434 -104.602 465.856 -115.06 466.578C-125.817 467.32 -130.263 444.509 -116.764 442.642C-95.285 439.671 -36.7822 434.693 -2.01374 434.978C25.9519 435.206 51.3587 435.943 68.3349 436.82C76.7555 390.363 93.943 278.233 103.197 255.193L188.777 273.384C179.904 295.478 110.532 455.705 100.691 471.127C97.426 476.686 90.9175 478.066 84.2678 476.848Z" fill="#B28B67"/>
<path fill-rule="evenodd" clip-rule="evenodd" d="M103.473 255.252C103.473 255.252 163.485 251.079 210.522 278.006C210.867 333.955 234.807 361.22 222.388 444.247C159.507 460.437 99.5544 397.059 35.1505 412.193C26.6233 370.064 69.7857 282.145 103.473 255.252Z" fill="#2B44FF"/>
<path fill-rule="evenodd" clip-rule="evenodd" d="M300.797 397.301L285.87 331.32L257.227 345.878L283.327 398.201C283.098 421.75 284.644 432.994 287.964 431.931C290.764 431.035 291.408 428.478 292.001 426.123C292.463 424.289 292.894 422.576 294.29 421.867C297.477 420.247 304.996 427.243 311.848 434.186C318.699 441.13 319.396 436.009 319.026 432.86C315.427 421.869 309.35 410.016 300.797 397.301ZM23.9117 299.268C33.6466 293.481 101.87 219.767 101.87 219.767L131.772 239.353C131.772 239.353 45.8779 310.833 40.1082 314.872C32.6131 320.12 30.7832 333.628 29.5425 342.788C29.3505 344.205 29.1726 345.518 28.9901 346.68C23.0624 345.75 22.467 341.835 21.8393 337.708C21.1303 333.046 20.3801 328.113 11.8589 326.904C8.56677 326.436 5.27139 326.271 2.05184 326.11C-9.06916 325.554 -19.2855 325.042 -25.3397 312.268C-26.2995 310.243 -25.6421 305.392 -19.5215 305.242C-4.27274 304.869 19.1525 302.097 23.9117 299.268Z" fill="#B28B67"/>
<path fill-rule="evenodd" clip-rule="evenodd" d="M268.644 149.469L282.428 155.4C269.185 222.549 275.033 295.174 299.973 373.276L228.075 395.951C215.128 299.397 223.869 214.131 268.644 149.469Z" fill="#181746"/>
<path fill-rule="evenodd" clip-rule="evenodd" d="M113.469 270.032L223.929 341.765C223.929 341.765 246.073 223.628 288.383 158.477L258.282 131.88C204.782 156.934 163.758 203.915 113.469 270.032Z" fill="#DDE3E9"/>
<path fill-rule="evenodd" clip-rule="evenodd" d="M32.5589 284.702C133.026 156.443 257.55 131.405 257.55 131.405L257.562 131.446C257.571 131.441 257.581 131.436 257.59 131.431L259.765 132.843C263.582 135.513 271.343 141.05 271.343 141.05L264.472 169.257C238.46 212.109 169.398 348.323 169.398 348.323L97.0958 301.369C93.4268 307.288 89.8536 313.386 86.3981 319.666L32.5589 284.702Z" fill="#2F3676"/>
<path fill-rule="evenodd" clip-rule="evenodd" d="M96.7416 301.941C112.678 276.138 130.442 253.729 148.242 234.569C133.563 261.488 117.647 295.014 116.885 315.023L96.7416 301.941Z" fill="black" fill-opacity="0.1"/>
<path fill-rule="evenodd" clip-rule="evenodd" d="M141.581 267.92L188.05 274.53L177.285 291.107L141.581 267.92Z" fill="white" fill-opacity="0.2"/>
</g>
<path fill-rule="evenodd" clip-rule="evenodd" d="M397.396 254.53C389.854 255.068 383.329 253.86 381.017 251.818C375.221 246.698 387.046 221.974 397.113 214.98C407.179 207.987 435.86 217.317 427.482 237.067C424.575 243.921 418.787 248.411 412.225 251.139L402.104 289.202L380.72 278.307L397.396 254.53Z" fill="#B28B67"/>
<path fill-rule="evenodd" clip-rule="evenodd" d="M394.437 196.812C395.673 195.481 397.543 194.755 399.35 195.178C399.788 195.28 400.209 195.446 400.602 195.667C400.742 195.745 400.762 195.807 400.88 195.741C400.968 195.692 401.062 195.511 401.127 195.434C401.329 195.194 401.546 194.966 401.778 194.754C402.569 194.032 403.536 193.529 404.556 193.21C406.463 192.613 408.621 192.629 410.486 193.384C411.507 193.797 412.397 194.451 413.16 195.24C413.554 195.648 413.914 196.09 414.25 196.547C414.352 196.684 414.623 197.244 414.771 197.291C414.934 197.344 415.428 197.124 415.598 197.092C417.707 196.702 419.812 197.198 421.693 198.174C423.816 199.276 425.814 200.428 426.93 202.633C427.166 203.1 427.371 203.584 427.55 204.075C427.645 204.333 427.731 204.595 427.805 204.86C427.85 205.02 427.89 205.181 427.926 205.343C427.986 205.618 427.928 205.669 428.22 205.647C429.341 205.563 430.456 205.825 431.392 206.457C431.948 206.832 432.434 207.304 432.862 207.817C433.008 207.992 433.277 208.53 433.475 208.634C433.67 208.738 434.246 208.66 434.487 208.688C435.791 208.842 437.024 209.345 438.082 210.12C439.173 210.919 440.1 211.989 440.773 213.158C441.097 213.72 441.342 214.285 441.443 214.927C441.486 215.205 441.51 215.486 441.58 215.759C441.621 215.918 441.757 216.129 441.738 216.295C441.749 216.196 443.343 216.361 443.485 216.392C444.244 216.559 444.908 216.942 445.454 217.491C446.48 218.526 447.077 219.976 447.473 221.353C447.676 222.06 447.798 222.79 447.843 223.523C447.865 223.875 447.869 224.227 447.857 224.579C447.852 224.75 447.807 224.944 447.829 225.111C447.857 225.326 447.93 225.367 448.093 225.538C448.922 226.406 449.537 227.473 449.825 228.638C450.117 229.818 450.064 231.059 449.716 232.218C449.695 232.287 449.57 232.549 449.59 232.602C449.616 232.674 449.829 232.756 449.902 232.805C450.152 232.971 450.392 233.152 450.621 233.347C451.043 233.705 451.425 234.11 451.756 234.554C453.045 236.285 453.462 238.511 453.149 240.617C452.82 242.827 451.707 244.984 450.007 246.451C449.732 246.688 449.439 246.904 449.128 247.092C448.938 247.207 448.904 247.19 448.881 247.402C448.857 247.637 448.898 247.899 448.89 248.137C448.864 248.915 448.731 249.685 448.514 250.431C448.159 251.655 447.667 252.881 446.884 253.898C446.521 254.37 446.091 254.793 445.595 255.126C445.342 255.296 445.073 255.442 444.792 255.561C444.646 255.622 444.498 255.676 444.347 255.724C444.26 255.751 444.159 255.762 444.078 255.8C443.88 255.892 443.92 255.753 443.866 256.01C443.792 256.37 443.829 256.781 443.792 257.149C443.754 257.528 443.702 257.905 443.639 258.281C443.512 259.042 443.346 259.798 443.109 260.533C442.655 261.944 441.91 263.314 440.684 264.197C440.159 264.574 439.552 264.83 438.916 264.946C438.604 265.002 438.286 265.026 437.969 265.016C437.806 265.012 437.625 264.953 437.501 265.05C437.367 265.153 437.324 265.473 437.269 265.636C436.783 267.059 436.168 268.5 435.112 269.598C434.139 270.61 432.801 271.26 431.407 271.43C428.702 271.762 426.027 270.302 424.465 268.138C424.058 267.574 423.721 266.959 423.473 266.31C421.497 267.29 419.111 266.012 417.627 264.69C415.779 263.042 414.822 260.686 414.829 258.234C412.644 259.189 410.084 257.214 410.057 254.956C410.05 254.403 410.159 253.853 410.34 253.333C410.435 253.059 410.589 252.813 410.691 252.546C410.822 252.205 410.767 251.781 410.802 251.405C410.87 250.674 411.04 249.969 411.368 249.309C411.54 248.964 411.753 248.653 411.959 248.329C412.144 248.038 412.205 247.71 412.31 247.383C412.812 247.752 413.554 247.944 414.15 248.048C414.735 248.15 415.418 247.982 415.966 247.789C417.239 247.342 418.326 246.46 419.251 245.502C421.28 243.398 422.491 240.251 420.682 237.608C419.84 236.377 416.343 234.597 414.792 234.204C413.162 233.79 409.862 236.171 409.626 236.432C409.48 236.594 409.387 236.839 409.151 236.877C408.633 236.958 408.251 236.163 408.092 235.785C407.817 235.134 407.748 234.418 407.729 233.718C407.689 232.194 407.818 230.647 408.114 229.152C408.343 227.999 408.69 226.868 408.818 225.696C408.945 224.53 408.806 223.36 408.18 222.344C407.499 221.238 406.528 220.344 405.636 219.413C404.752 218.49 403.929 217.494 403.501 216.274C403.407 216.005 403.324 215.729 403.281 215.448C403.248 215.226 403.291 214.856 403.167 214.662C402.972 214.361 402.357 214.573 402.042 214.603C400.485 214.751 398.972 215.293 397.6 216.028C396.236 216.759 395.035 217.52 393.866 218.516C392.999 219.256 392.144 220.333 391.068 220.752C390.587 220.94 388.209 219.989 387.625 219.315C387.042 218.64 386.613 217.442 386.614 216.829C386.616 216.201 386.835 215.622 387.221 215.131C387.448 214.842 387.731 214.608 387.963 214.328C388.158 214.094 388.34 213.871 388.592 213.693C389.072 213.358 389.658 213.24 390.232 213.358C389.954 212.608 389.815 211.808 389.843 211.008C389.873 210.177 390.025 209.225 390.325 208.45C390.569 207.82 390.98 207.247 391.57 206.9C392.189 206.535 392.977 206.493 393.676 206.425C393.192 205.385 392.893 204.268 392.759 203.131C392.497 200.92 392.875 198.493 394.437 196.812Z" fill="#181746"/>
<path fill-rule="evenodd" clip-rule="evenodd" d="M383 363L333.918 487.227L300.999 592.25H288L338.326 363L383 363Z" fill="#997659"/>
<path fill-rule="evenodd" clip-rule="evenodd" d="M392.883 363C393.406 406.654 401.028 465.427 402.246 468.149C403.464 470.87 486.324 537.358 486.324 537.358L477.371 546.939C477.371 546.939 379.603 489.934 375.079 482.331C370.555 474.728 355.826 404.763 344 363H392.883Z" fill="#B28B67"/>
<path fill-rule="evenodd" clip-rule="evenodd" d="M484.884 535.564C485.211 534.44 486.396 533.771 487.496 534.173C489.502 534.906 492.436 536.092 493.736 537.183C495.808 538.922 499.204 542.948 499.204 542.948C497.187 545.352 462.949 586.154 462.949 586.154C462.949 586.154 455.968 583.166 458.569 579.165C461.17 575.164 462.826 572.464 462.826 572.464L470.724 544.87C470.879 544.328 471.451 544.022 471.988 544.192L476.202 545.529C476.202 545.529 480.588 543.485 482.35 541.384C483.423 540.106 484.335 537.448 484.884 535.564Z" fill="#E4E4E4"/>
<path fill-rule="evenodd" clip-rule="evenodd" d="M303.55 586.284C304.622 585.813 305.896 586.29 306.295 587.391C307.023 589.398 308 592.409 308 594.106C308 596.811 307.099 602 307.099 602C303.961 602 250.697 602 250.697 602C250.697 602 248.498 594.732 253.235 594.152C257.972 593.573 261.105 593.106 261.105 593.106L287.32 581.419C287.835 581.189 288.437 581.43 288.652 581.951L290.337 586.039C290.337 586.039 294.722 588.085 297.463 588.085C299.132 588.085 301.754 587.074 303.55 586.284Z" fill="#E4E4E4"/>
<path fill-rule="evenodd" clip-rule="evenodd" d="M350 581.433L288.196 574.725L334 363H389.356L350 581.433Z" fill="#69A1AC"/>
<path fill-rule="evenodd" clip-rule="evenodd" d="M473.54 521.9L433 569.886C433 569.886 368.95 499.932 358.317 478.596C347.685 457.26 339.201 363 339.201 363H401.522C401.522 363 406.156 445.926 407.769 449.785C409.383 453.644 473.54 521.9 473.54 521.9Z" fill="#89C5CC"/>
<path fill-rule="evenodd" clip-rule="evenodd" d="M281.325 299.141L312.634 323.347L297.821 334.93L276.524 308.176C263.974 302.481 258.392 298.885 259.777 297.388C260.945 296.125 262.461 296.416 263.857 296.683C264.945 296.891 265.96 297.086 266.682 296.521C268.33 295.233 266.48 289.52 264.492 284.175C262.504 278.829 265.393 279.725 266.972 280.698C271.912 285.32 276.696 291.468 281.325 299.141ZM432.847 362.027L453.713 363.039C458.337 401.943 461.52 423.423 463.263 427.482C464.541 430.458 474.665 439.826 481.747 445.247C484.589 447.422 483.234 449.945 482.084 450.573C474.833 454.538 469.827 451.267 464.378 447.705C462.8 446.674 461.185 445.619 459.468 444.708C455.023 442.35 452.974 444.427 451.037 446.39C449.323 448.128 447.696 449.776 444.574 448.178C444.887 447.565 445.254 446.883 445.65 446.146C448.21 441.383 451.985 434.36 450.244 429.298C449.351 426.7 443.552 404.277 432.847 362.027Z" fill="#B28B67"/>
<path fill-rule="evenodd" clip-rule="evenodd" d="M398.337 270.217L390.306 266.686C367.611 279.857 349.535 320.587 335.95 323.188C323.107 325.647 308.07 316.42 290.404 304.618L281.152 316.412C294.026 339.88 327.565 365.357 345.081 359.954C373.087 351.315 391.802 300.188 398.337 270.217Z" fill="#DB2721"/>
<path fill-rule="evenodd" clip-rule="evenodd" d="M408.624 384.777C408.624 384.777 358.161 372.195 334.385 366.267C330.993 365.421 332.853 360.682 333.96 358.332C346.732 331.216 376.492 305.974 386.617 265.366L408.868 267.347C419.477 300.25 416.858 336.85 408.624 384.777Z" fill="#DDE3E9"/>
<path fill-rule="evenodd" clip-rule="evenodd" d="M410.005 267.631L410.249 267.692C450.901 309.266 468.488 362.385 463.013 427.049L446.692 426.217C439.378 411.638 431.557 388.812 423.229 357.74C423.773 375.342 422.957 393.054 420.038 409.265L353.212 392.604C348.426 356.685 401.77 265.578 401.77 265.578L406.384 266.728L410.005 267.631Z" fill="#FF4133"/>
<defs>
<filter id="filter0_d" x="0.249451" y="0.285645" width="334.356" height="589.947" filterUnits="userSpaceOnUse" color-interpolation-filters="sRGB">
<feFlood flood-opacity="0" result="BackgroundImageFix"/>
<feColorMatrix in="SourceAlpha" type="matrix" values="0 0 0 0 0 0 0 0 0 0 0 0 0 0 0 0 0 0 127 0"/>
<feOffset dx="-10" dy="22"/>
<feGaussianBlur stdDeviation="17"/>
<feColorMatrix type="matrix" values="0 0 0 0 0 0 0 0 0 0 0 0 0 0 0 0 0 0 0.1 0"/>
<feBlend mode="normal" in2="BackgroundImageFix" result="effect1_dropShadow"/>
<feBlend mode="normal" in="SourceGraphic" in2="effect1_dropShadow" result="shape"/>
</filter>
</defs>
</svg>
