<svg width="667" height="559" viewBox="0 0 667 559" fill="none" xmlns="http://www.w3.org/2000/svg">
<path fill-rule="evenodd" clip-rule="evenodd" d="M166.181 163.584C173.455 167.971 180.602 170.091 183.957 169.226C192.37 167.056 193.144 136.257 186.634 124.115C180.125 111.974 146.661 106.681 144.974 130.738C144.388 139.088 147.892 146.539 153.068 152.619L143.787 195.909H170.747L166.181 163.584Z" fill="#B28B67"/>
<path fill-rule="evenodd" clip-rule="evenodd" d="M133.22 122.73C132.349 121.867 131.874 120.634 131.463 119.464C131.037 118.248 130.622 117.02 130.339 115.754C129.773 113.226 129.767 110.318 131.57 108.355C133.015 106.781 135.184 106.074 137.186 105.921C138.52 105.819 139.889 106.005 141.168 106.426C142.436 106.843 143.53 107.675 144.759 108.191C144.806 105.466 145.273 102.615 146.654 100.289C147.983 98.0502 150.103 96.7941 152.516 96.4617C154.993 96.1207 157.44 96.7008 159.657 97.9009C160.212 98.2015 160.763 98.5163 161.289 98.8727C161.73 99.1711 162.188 99.5305 162.705 99.6519C163.282 99.7874 163.567 99.4541 163.942 99.0332C164.381 98.5397 164.876 98.105 165.4 97.7197C167.716 96.0161 170.755 95.3157 173.438 96.3368C174.674 96.8073 175.877 97.6063 176.715 98.7073C177.463 99.6887 177.996 101.246 179.028 101.929C179.466 102.22 179.775 101.835 180.174 101.551C180.773 101.124 181.344 100.652 181.95 100.237C182.801 99.6534 183.723 99.2168 184.71 98.9883C186.155 98.6537 188.152 98.7321 188.565 100.626C188.72 101.337 188.602 102.098 188.551 102.815C188.483 103.799 188.411 104.783 188.325 105.766C188.261 106.512 188.179 107.233 188.038 107.966C187.963 108.356 187.728 109.084 187.895 109.476C188.105 109.965 189.07 109.687 189.482 109.704C190.297 109.737 191.115 109.88 191.868 110.228C192.452 110.499 193.066 110.896 193.312 111.565C193.464 111.976 193.424 112.399 193.352 112.822C193.266 113.33 193.365 113.599 193.429 114.112C194.523 113.573 198.314 112.375 198.791 114.337C198.95 114.99 198.588 115.728 198.312 116.279C197.828 117.246 197.194 118.129 196.545 118.972C195.192 120.729 193.577 122.245 191.839 123.541C193.875 124.447 194.407 127.119 192.643 128.711C191.865 129.414 190.818 129.571 189.836 129.526C189.477 129.509 188.959 129.371 188.676 129.434C188.524 129.467 188.361 129.596 188.15 129.611C186.764 129.706 185.2 129.372 183.845 129.064C181.432 128.516 179.146 127.371 177.28 125.628C176.801 125.181 176.406 124.924 175.762 124.93C175.197 124.936 174.643 125.091 174.079 125.105C172.586 125.143 171.24 124.413 169.854 123.927C169.77 125.801 169.236 127.865 168.47 129.55C167.846 130.925 166.542 131.125 165.26 131.245C161.161 131.631 157.048 131.2 152.945 131.206C156.917 132.105 161.022 132.475 164.959 133.532C166.739 134.01 165.38 135.211 164.619 136.043C163.366 137.413 162.434 139.111 161.788 140.899C159.845 138.364 156.41 136.694 153.367 137.473C150.005 138.333 147.637 142.883 149.787 146.155C151.035 148.054 153.289 148.787 155.165 149.603C153.702 151.125 153.348 153.373 152.467 155.267C152.033 156.201 151.423 157.257 150.452 157.583C150.092 157.703 149.671 157.714 149.387 158.007C149.036 158.37 148.953 158.776 148.504 159.088C146.714 160.333 143.919 160.237 142.332 158.612C140.898 157.142 141.271 154.817 142.469 153.327C140.562 152.531 137.087 151.508 137.845 148.535C133.713 148.26 123.679 141.553 129.225 136.652C126.181 134.93 123.385 130.723 125.34 127.014C126.846 124.158 130.347 122.882 133.22 122.73Z" fill="#191847"/>
<path fill-rule="evenodd" clip-rule="evenodd" d="M104.046 337.548H190.829L202.2 476.939H73.0166L104.046 337.548Z" fill="#C5CFD6"/>
<path fill-rule="evenodd" clip-rule="evenodd" d="M104.046 337.548H130.737L146.712 476.939H73.0166L104.046 337.548Z" fill="black" fill-opacity="0.1"/>
<path fill-rule="evenodd" clip-rule="evenodd" d="M238.51 365.164C228.758 385.861 213.519 436.102 213.519 436.102L226.456 442.017C226.456 442.017 259.281 389.204 279.342 353.102C278.407 361.229 277.455 370.379 276.573 379.998C274.483 402.784 276.572 452.014 277.696 466.234C278.403 475.172 290.539 473.3 291.671 466.211C291.863 465.011 292.645 460.796 293.812 454.507C299.533 423.67 314.507 342.964 314.533 323.202C314.544 315.251 299.02 308.107 289.767 313.667C283.412 306.881 271.383 302.97 264.473 314.18C260.08 321.306 249.642 341.538 238.51 365.164Z" fill="#B28B67"/>
<path fill-rule="evenodd" clip-rule="evenodd" d="M214.444 417.502L258.847 312.241C269.484 295.118 299.308 315.725 295.68 325.657C287.445 348.204 245.56 421.199 243.107 427.916L214.444 417.502Z" fill="#1F28CF"/>
<path fill-rule="evenodd" clip-rule="evenodd" d="M215.144 429.717C214.457 428.768 213.116 428.545 212.217 429.295C210.379 430.831 207.57 433.332 206.58 435.047C205.061 437.681 203.023 443.239 203.023 443.239C206.076 445.003 257.893 474.94 257.893 474.94C257.893 474.94 264.114 469.1 259.831 465.874C255.549 462.647 252.763 460.432 252.763 460.432L233.75 434.217C233.419 433.761 232.777 433.668 232.33 434.012L228.295 437.122C228.295 437.122 222.88 436.649 220.213 435.108C218.522 434.131 216.441 431.507 215.144 429.717Z" fill="#E4E4E4"/>
<path fill-rule="evenodd" clip-rule="evenodd" d="M277.724 459.164C276.655 458.686 275.381 459.164 274.978 460.263C274.153 462.513 272.97 466.085 272.97 468.065C272.97 471.106 273.982 476.939 273.982 476.939C277.507 476.939 337.34 476.939 337.34 476.939C337.34 476.939 339.81 468.769 334.489 468.117C329.168 467.466 325.649 466.941 325.649 466.941L296.085 453.752C295.57 453.522 294.968 453.763 294.753 454.284L292.812 458.997C292.812 458.997 287.886 461.297 284.806 461.297C282.854 461.297 279.742 460.066 277.724 459.164Z" fill="#E4E4E4"/>
<path fill-rule="evenodd" clip-rule="evenodd" d="M317.645 331.29C317.645 361.155 303.473 430.817 303.464 437.393L272.97 437.416C272.97 437.416 279.665 344.178 277.718 343.173C275.771 342.169 197.904 350.953 174.551 350.953C140.875 350.953 126.944 329.702 125.813 290.335H192.524C206.107 291.789 276.957 306.09 303.269 311.006C314.533 313.11 317.645 323.063 317.645 331.29Z" fill="#2B44FF"/>
<path fill-rule="evenodd" clip-rule="evenodd" d="M226.609 304.121C205.275 348.583 115.469 318.561 115.469 318.561C115.469 310.857 118.523 303.133 121.73 295.021C125.168 286.323 128.784 277.178 129 267.134C129.398 248.654 132.851 192.663 147.261 173.749C147.524 172.894 147.79 172.037 148.06 171.178L149.058 171.648C149.213 171.487 149.37 171.33 149.528 171.178L180.971 176.043C180.971 190.275 190.072 203.77 198.265 215.918C200.258 218.874 202.198 221.75 203.94 224.538C206.221 228.189 208.796 231.906 211.434 235.714C224.795 255.002 239.791 276.649 226.609 304.121Z" fill="#C1DEE2"/>
<path fill-rule="evenodd" clip-rule="evenodd" d="M186.319 295.716C188.422 284.857 189.786 277.607 190.412 273.967C207.163 292.909 216.84 302.49 219.443 302.71C224.34 303.123 227.957 298.778 228.988 300C230.69 305.058 225.881 317.721 216.689 319.562C212.3 320.441 205.507 311.383 202.708 308.173C201.608 306.911 196.145 302.759 186.319 295.716ZM215.255 237.818C219.597 237.818 221.929 239.615 224.497 243.239C227.064 246.864 229.494 263.957 225.372 263.957C221.25 263.957 203.979 257.35 203.979 252.907C203.979 248.465 215.763 246.584 215.763 243.239C215.763 239.895 210.912 237.818 215.255 237.818Z" fill="#B28B67"/>
<path fill-rule="evenodd" clip-rule="evenodd" d="M142.175 192.22C131.146 238.233 135.639 277.04 177.552 312.241C177.059 314.009 176.764 315.066 176.764 315.066C127.567 280.657 127.543 238.959 142.175 192.22Z" fill="black" fill-opacity="0.2"/>
<path fill-rule="evenodd" clip-rule="evenodd" d="M482.823 92.6498C475.538 97.0409 468.38 99.1625 465.02 98.2964C456.594 96.1246 455.82 65.3019 462.339 53.1507C468.858 40.9994 502.372 35.7031 504.061 59.7786C504.647 68.1345 501.139 75.5915 495.955 81.6764L505.25 125H478.25L482.823 92.6498Z" fill="#B28B67"/>
<path fill-rule="evenodd" clip-rule="evenodd" d="M477.728 39.1459C481.287 38.5624 490.868 38.1611 492.635 38.1614C493.764 38.1614 494.988 38.4194 495.657 37.3825C496.204 36.5335 496.004 35.0975 496.167 34.1122C496.357 32.9677 496.627 31.8378 496.899 30.7109C497.675 27.504 498.849 24.4531 500.49 21.5886C503.571 16.2146 508.084 12.0051 513.781 9.55562C520.073 6.851 527.192 6.2317 533.959 6.78029C541.201 7.36721 547.757 9.75791 554.595 12.0077C561.111 14.1516 567.935 14.9954 574.75 13.9485C581.617 12.8938 586.805 9.17228 592.596 5.64011C598.525 2.02401 605.301 -0.341047 612.31 0.202623C618.853 0.710291 624.883 3.41181 630.293 7.02065C635.355 10.3972 639.532 14.4595 641.89 20.177C644.427 26.3273 644.424 33.0782 640.253 38.5137C634.206 46.3923 622.981 48.4298 613.643 48.2272C608.241 48.1104 602.936 47.1243 597.836 45.3307C591.035 42.9384 585.157 38.8838 578.795 35.5941C575.809 34.0503 572.722 32.7825 569.487 31.8692C566.347 30.9826 563.255 30.5759 560.413 32.4724C557.406 34.4787 554.711 36.4496 551.271 37.7055C547.971 38.9105 544.476 39.5844 540.96 39.5572C534.119 39.5044 527.376 37.373 520.732 35.9453C515.314 34.7813 509.517 33.6211 503.993 34.7401C501.688 35.2071 498.322 36.1711 497.489 38.5665C511.5 41.1059 517.003 58.4339 513.053 71.1544C510.921 78.0201 498.106 86.046 493.124 82.4366C489.967 80.1499 491.884 77.1479 493.124 75.1662C495.499 71.3712 496.312 66.4962 491.917 63.854C488.126 61.5752 484.14 66.9868 484.064 66.9808C483.023 66.8987 474.02 61.8071 467.817 54.3771C461.697 54.7399 460.769 50.705 462.23 47.4053C463.691 44.1055 472.811 39.9527 477.728 39.1459Z" fill="#191847"/>
<path fill-rule="evenodd" clip-rule="evenodd" d="M523.213 220L480.941 358.467L460.464 476.223H444.408L466.046 220H523.213Z" fill="#997659"/>
<path fill-rule="evenodd" clip-rule="evenodd" d="M538.336 220C535.465 296.026 538.844 335.241 539.486 342.148C540.129 349.055 548.928 393.842 569.76 478.542L552.651 472.655C519.729 394.973 508.51 354.6 504.734 344.399C500.958 334.199 490.929 292.732 474.648 220H538.336Z" fill="#B28B67"/>
<path fill-rule="evenodd" clip-rule="evenodd" d="M566.761 471.204C567.831 470.725 569.106 471.203 569.509 472.303C570.334 474.556 571.517 478.132 571.517 480.115C571.517 483.159 570.504 489 570.504 489C566.979 489 507.146 489 507.146 489C507.146 489 504.677 480.819 509.998 480.167C515.319 479.515 518.838 478.989 518.838 478.989L548.401 465.784C548.916 465.554 549.519 465.795 549.734 466.317L551.675 471.035C551.675 471.035 556.601 473.338 559.681 473.338C561.632 473.338 564.744 472.106 566.761 471.204Z" fill="#E4E4E4"/>
<path fill-rule="evenodd" clip-rule="evenodd" d="M461.168 471.204C462.238 470.725 463.513 471.203 463.916 472.303C464.74 474.556 465.923 478.132 465.923 480.115C465.923 483.159 464.911 489 464.911 489C461.386 489 401.553 489 401.553 489C401.553 489 399.083 480.819 404.404 480.167C409.725 479.515 413.245 478.989 413.245 478.989L442.808 465.784C443.323 465.554 443.926 465.795 444.14 466.317L446.082 471.035C446.082 471.035 451.007 473.338 454.087 473.338C456.039 473.338 459.15 472.106 461.168 471.204Z" fill="#E4E4E4"/>
<path fill-rule="evenodd" clip-rule="evenodd" d="M528.83 220L510.857 290.547H455.959L464.144 220H528.83Z" fill="#69A1AC"/>
<path fill-rule="evenodd" clip-rule="evenodd" d="M538.94 220C547.811 246.642 542.31 290.547 542.31 290.547H486.289L470.884 220H538.94Z" fill="#89C5CC"/>
<path fill-rule="evenodd" clip-rule="evenodd" d="M600.067 255.484C595.873 249.331 567.604 166.535 567.604 166.535L543.222 170.055C543.222 170.055 583.759 256.272 586.075 260.282C589.084 265.491 586.419 274.048 584.612 279.851C584.333 280.748 584.074 281.58 583.86 282.323C587.652 283.415 589.095 281.248 590.616 278.963C592.335 276.383 594.153 273.652 599.569 275.299C601.661 275.935 603.671 276.752 605.635 277.55C612.418 280.308 618.65 282.841 625.81 276.912C626.945 275.972 627.902 272.899 624.295 271.109C615.31 266.651 602.117 258.491 600.067 255.484ZM389.951 251.205L417.19 216.038L430.217 232.669L400.114 256.594C393.704 270.69 389.657 276.96 387.973 275.404C386.553 274.092 386.88 272.39 387.181 270.822C387.416 269.601 387.635 268.46 387 267.65C385.551 265.8 379.124 267.879 373.11 270.113C367.096 272.347 368.104 269.102 369.2 267.329C374.401 261.78 381.318 256.405 389.951 251.205Z" fill="#B28B67"/>
<path fill-rule="evenodd" clip-rule="evenodd" d="M483.56 107.904L473.695 107.608C466.045 163.289 393.204 210.748 391.231 231.438C390.507 239.026 396.321 241.993 393.902 244.613L407.709 252.003C409.482 249.235 414.642 253.117 423.647 248.629C432.653 244.141 492.471 171.309 483.56 107.904Z" fill="#DB2721"/>
<path fill-rule="evenodd" clip-rule="evenodd" d="M499.611 94.2123C501.772 93.7532 503.896 95.1328 504.356 97.2936L505.83 104.225C525.917 115.604 576.7 150.904 599.296 226.729C601.67 234.694 600.058 239.366 598.771 243.098C597.89 245.652 597.16 247.766 597.962 250.194L582.209 257.012C581.951 255.172 579.689 254.063 576.77 252.632C572.527 250.551 566.896 247.789 564.019 241.112C561.292 234.782 557.497 226.931 553.06 218.227C554.464 230.383 553.729 241.847 550.012 251.779C540.74 276.557 464.91 261.469 454.058 239.046C448.267 227.08 452.506 215.755 458.113 200.778C465.23 181.765 474.55 156.867 468.356 117.3L465.841 105.475C465.381 103.314 466.76 101.191 468.921 100.732L499.611 94.2123Z" fill="#FF4133"/>
</svg>
